<svg xmlns="http://www.w3.org/2000/svg" width="17.143" height="15" viewBox="0 0 17.143 15">
  <path id="Icon_awesome-list-ol" data-name="Icon awesome-list-ol" d="M2.068,14.6l.586-.675a.667.667,0,0,0,.17-.475v-.111a.34.34,0,0,0-.38-.38H.536a.268.268,0,0,0-.268.268v.536a.268.268,0,0,0,.268.268H1.3a5.27,5.27,0,0,0-.368.412l-.188.234a.445.445,0,0,0-.094.5l.035.065a.408.408,0,0,0,.41.264h.158c.346,0,.534.082.534.3,0,.158-.141.275-.481.275a1.391,1.391,0,0,1-.518-.1c-.217-.13-.393-.117-.522.1L.079,16.4a.361.361,0,0,0,.088.534,2.4,2.4,0,0,0,1.239.316A1.467,1.467,0,0,0,3.03,15.773,1.21,1.21,0,0,0,2.068,14.6ZM16.607,8.679H5.893a.536.536,0,0,0-.536.536v1.071a.536.536,0,0,0,.536.536H16.607a.536.536,0,0,0,.536-.536V9.214A.536.536,0,0,0,16.607,8.679Zm0-5.357H5.893a.536.536,0,0,0-.536.536V4.929a.536.536,0,0,0,.536.536H16.607a.536.536,0,0,0,.536-.536V3.857A.536.536,0,0,0,16.607,3.321Zm0,10.714H5.893a.536.536,0,0,0-.536.536v1.071a.536.536,0,0,0,.536.536H16.607a.536.536,0,0,0,.536-.536V14.571A.536.536,0,0,0,16.607,14.036ZM.536,6.536H2.679a.268.268,0,0,0,.268-.268V5.732a.268.268,0,0,0-.268-.268H2.143V2.518a.268.268,0,0,0-.268-.268h-.8A.268.268,0,0,0,.832,2.4l-.268.536A.268.268,0,0,0,.8,3.321h.268V5.464H.536a.268.268,0,0,0-.268.268v.536A.268.268,0,0,0,.536,6.536ZM.4,11.893H2.679a.268.268,0,0,0,.268-.268v-.536a.268.268,0,0,0-.268-.268h-1.3C1.494,10.477,3,10.2,3,8.932A1.356,1.356,0,0,0,1.513,7.607a1.624,1.624,0,0,0-1.355.628.331.331,0,0,0,.094.515l.287.23c.188.153.368.083.54-.082A.45.45,0,0,1,1.4,8.77a.285.285,0,0,1,.311.293C1.708,9.489,0,9.794,0,11.377v.134A.366.366,0,0,0,.4,11.893Z" transform="translate(0 -2.25)" fill="#fff"/>
</svg>
